<?xml version="1.0" ?><!DOCTYPE svg  PUBLIC '-//W3C//DTD SVG 1.1//EN'  'http://www.w3.org/Graphics/SVG/1.1/DTD/svg11.dtd'><svg height="43.3492mm" style="shape-rendering:geometricPrecision; text-rendering:geometricPrecision; image-rendering:optimizeQuality; fill-rule:evenodd; clip-rule:evenodd" version="1.1" viewBox="0 0 4335 4335" width="43.3492mm" xml:space="preserve" xmlns="http://www.w3.org/2000/svg" xmlns:xlink="http://www.w3.org/1999/xlink"><defs><style type="text/css">
   <![CDATA[
    .fil0 {fill:#2B2A29}
   ]]>
  </style></defs><g id="Layer_x0020_1"><path class="fil0" d="M271 4267l1583 0c93,0 169,-76 169,-169l0 -1583c0,-93 -76,-169 -169,-169l-1583 0c-93,0 -169,76 -169,169l0 1583c0,93 76,169 169,169zm2201 -2244l1583 0c93,0 169,-76 169,-169l0 -1583c0,-93 -76,-169 -169,-169l-1583 0c-93,0 -169,76 -169,169l0 1583c0,93 76,169 169,169zm286 -347l1011 0c59,0 108,-49 108,-108l0 -1011c0,-59 -49,-108 -108,-108l-1011 0c-59,0 -108,49 -108,108l0 1011c0,59 49,108 108,108zm-2487 347l1583 0c93,0 169,-76 169,-169l0 -1583c0,-93 -76,-169 -169,-169l-1583 0c-93,0 -169,76 -169,169l0 1583c0,93 76,169 169,169zm2201 2244l1583 0c93,0 169,-76 169,-169l0 -1583c0,-93 -76,-169 -169,-169l-1583 0c-93,0 -169,76 -169,169l0 1583c0,93 76,169 169,169z"/></g></svg>